<svg xmlns="http://www.w3.org/2000/svg"  viewBox="0 0 32 32" width="64px" height="64px" baseProfile="basic"><path fill="#449bb3" d="M16,24.5c3,0,5.5-1,5.5-1L23,26c5.5-1.5,7-4,7-4c0-9-3.75-14-3.75-14c-3-1.5-5.75-1.75-5.75-1.75	L20,8c0,0-1.5-0.5-4-0.5S12,8,12,8l-0.5-1.75c0,0-2.75,0.25-5.75,1.75C5.75,8,2,13,2,22c0,0,1.5,2.5,7,4l1.5-2.5	C10.5,23.5,13,24.5,16,24.5z"/><path fill="#fff" d="M20.5,20c-1.378,0-2.5-1.346-2.5-3s1.122-3,2.5-3s2.5,1.346,2.5,3S21.878,20,20.5,20z M20.5,15	c-0.827,0-1.5,0.897-1.5,2s0.673,2,1.5,2s1.5-0.897,1.5-2S21.327,15,20.5,15z"/><path fill="#fff" d="M11.5,20C10.122,20,9,18.654,9,17s1.122-3,2.5-3s2.5,1.346,2.5,3S12.878,20,11.5,20z M11.5,15	c-0.827,0-1.5,0.897-1.5,2s0.673,2,1.5,2s1.5-0.897,1.5-2S12.327,15,11.5,15z"/><path fill="#fff" d="M10.01,23.314c-1.222-0.468-2.782-1.458-2.848-1.5l0.537-0.844c0.016,0.01,1.542,0.979,2.668,1.41	L10.01,23.314z"/><path fill="#fff" d="M21.99,23.314l-0.357-0.934c1.126-0.432,2.652-1.4,2.668-1.41l0.537,0.844	C24.772,21.856,23.212,22.847,21.99,23.314z"/><path fill="#302529" d="M22.532,27.164l-1.474-2.456C20.032,25.026,18.143,25.5,16,25.5s-4.032-0.474-5.059-0.792	l-1.474,2.456l-0.731-0.199c-5.821-1.588-7.524-4.334-7.594-4.45L1,22.277V22C1,12.772,4.789,7.615,4.95,7.4l0.142-0.189	l0.211-0.105c3.133-1.566,5.987-1.841,6.107-1.852l0.824-0.075l0.464,1.623C13.443,6.655,14.572,6.5,16,6.5s2.557,0.155,3.302,0.302	l0.464-1.623l0.824,0.075c0.12,0.011,2.974,0.285,6.107,1.852l0.211,0.105L27.05,7.4C27.211,7.615,31,12.772,31,22v0.277	l-0.143,0.237c-0.07,0.116-1.773,2.862-7.594,4.45L22.532,27.164z M3.002,21.672c0.44,0.524,1.963,2.044,5.537,3.152l1.541-2.567	l0.791,0.314C10.894,22.58,13.243,23.5,16,23.5c2.775,0,5.105-0.919,5.128-0.929l0.791-0.316l1.542,2.569	c3.563-1.104,5.088-2.619,5.537-3.154c-0.079-7.394-2.798-11.94-3.423-12.887c-1.766-0.849-3.414-1.243-4.354-1.416l-0.546,1.912	l-0.991-0.331C19.673,8.945,18.28,8.5,16,8.5s-3.673,0.445-3.687,0.45l-0.986,0.321L10.78,7.369	c-0.944,0.174-2.598,0.57-4.355,1.414C5.803,9.726,3.081,14.273,3.002,21.672z"/></svg>