<svg xmlns="http://www.w3.org/2000/svg"  viewBox="0 0 32 32" width="64px" height="64px" baseProfile="basic"><path fill="#79b5ba" d="M2,24V8c0-1.105,0.895-2,2-2h24c1.105,0,2,0.895,2,2v16c0,1.105-0.895,2-2,2H4	C2.895,26,2,25.105,2,24z"/><path fill="#e83815" d="M30,8v16c0,1.1-0.9,2-2,2h-2.5V12.71L16,19.5l-9.5-6.79V26H4c-1.1,0-2-0.9-2-2V8c0-1.1,0.9-2,2-2	h0.04l11.95,8.5L27.91,6H28C29.1,6,30,6.9,30,8z"/><rect width="1" height="13.286" x="25" y="12.714" fill="#fff"/><polygon fill="#fff" points="16,20.114 1.709,9.907 2.291,9.093 16,18.886 29.709,9.093 30.291,9.907"/><rect width="1" height="13.286" x="6" y="12.714" fill="#fff"/><polygon fill="#fff" points="15.995,15.114 3.752,6.407 4.331,5.593 15.994,13.886 27.618,5.593 28.199,6.407"/><path fill="#302529" d="M28,27H4c-1.654,0-3-1.346-3-3V8c0-1.654,1.346-3,3-3h24c1.654,0,3,1.346,3,3v16	C31,25.654,29.654,27,28,27z M4,7C3.449,7,3,7.448,3,8v16c0,0.552,0.449,1,1,1h24c0.551,0,1-0.448,1-1V8c0-0.552-0.449-1-1-1H4z"/></svg>